<?xml version="1.0" encoding="UTF-8" standalone="no"?>
<svg
   xmlns:ns8="http://www.iki.fi/pav/software/textext/"
   xmlns:ns="http://wanglongqi.github.io/WriteTeX"
   xmlns:dc="http://purl.org/dc/elements/1.1/"
   xmlns:cc="http://creativecommons.org/ns#"
   xmlns:rdf="http://www.w3.org/1999/02/22-rdf-syntax-ns#"
   xmlns:svg="http://www.w3.org/2000/svg"
   xmlns="http://www.w3.org/2000/svg"
   xmlns:sodipodi="http://sodipodi.sourceforge.net/DTD/sodipodi-0.dtd"
   xmlns:inkscape="http://www.inkscape.org/namespaces/inkscape"
   sodipodi:docname="coverings.svg"
   inkscape:version="1.0.2 (e86c870879, 2021-01-15)"
   id="svg3904"
   version="1.1"
   viewBox="0 0 210 297"
   height="297mm"
   width="210mm">
  <metadata
     id="metadata159">
    <rdf:RDF>
      <cc:Work
         rdf:about="">
        <dc:format>image/svg+xml</dc:format>
        <dc:type
           rdf:resource="http://purl.org/dc/dcmitype/StillImage" />
        <dc:title></dc:title>
      </cc:Work>
    </rdf:RDF>
  </metadata>
  <sodipodi:namedview
     id="namedview3906"
     pagecolor="#ffffff"
     bordercolor="#666666"
     borderopacity="1.0"
     inkscape:pageshadow="2"
     inkscape:pageopacity="0.0"
     inkscape:pagecheckerboard="0"
     inkscape:document-units="mm"
     showgrid="false"
     inkscape:zoom="0.80009814"
     inkscape:cx="179.62852"
     inkscape:cy="600.62355"
     inkscape:window-width="1920"
     inkscape:window-height="1016"
     inkscape:window-x="0"
     inkscape:window-y="36"
     inkscape:window-maximized="1"
     inkscape:current-layer="layer4"
     inkscape:showpageshadow="2"
     inkscape:deskcolor="#d1d1d1"
     inkscape:document-rotation="0" />
  <defs
     id="defs3901">
    <marker
       style="overflow:visible;"
       id="marker27869"
       refX="0.0"
       refY="0.0"
       orient="auto"
       inkscape:stockid="Arrow1Mend"
       inkscape:isstock="true">
      <path
         transform="scale(0.4) rotate(180) translate(10,0)"
         style="fill-rule:evenodd;fill:context-stroke;stroke:context-stroke;stroke-width:1.0pt;"
         d="M 0.0,0.0 L 5.0,-5.0 L -12.5,0.0 L 5.0,5.0 L 0.0,0.0 z "
         id="path27867" />
    </marker>
    <marker
       style="overflow:visible"
       id="marker27859"
       refX="0"
       refY="0"
       orient="auto"
       inkscape:stockid="Arrow1Lend"
       inkscape:isstock="true">
      <path
         transform="matrix(-0.8,0,0,-0.8,-10,0)"
         style="fill:context-stroke;fill-rule:evenodd;stroke:context-stroke;stroke-width:1pt"
         d="M 0,0 5,-5 -12.5,0 5,5 Z"
         id="path27857" />
    </marker>
    <marker
       style="overflow:visible;"
       id="Arrow1Lend"
       refX="0.0"
       refY="0.0"
       orient="auto"
       inkscape:stockid="Arrow1Lend"
       inkscape:isstock="true">
      <path
         transform="scale(0.8) rotate(180) translate(12.5,0)"
         style="fill-rule:evenodd;fill:context-stroke;stroke:context-stroke;stroke-width:1.0pt;"
         d="M 0.0,0.0 L 5.0,-5.0 L -12.5,0.0 L 5.0,5.0 L 0.0,0.0 z "
         id="path2548" />
    </marker>
    <marker
       style="overflow:visible;"
       id="Arrow1Mend"
       refX="0.0"
       refY="0.0"
       orient="auto"
       inkscape:stockid="Arrow1Mend"
       inkscape:isstock="true">
      <path
         transform="scale(0.4) rotate(180) translate(10,0)"
         style="fill-rule:evenodd;fill:context-stroke;stroke:context-stroke;stroke-width:1.0pt;"
         d="M 0.0,0.0 L 5.0,-5.0 L -12.5,0.0 L 5.0,5.0 L 0.0,0.0 z "
         id="path2554" />
    </marker>
    <defs
       id="id-1f2c2714-9305-4101-b533-f1ef6dd1fed7">
      <g
         id="id-934e09a1-bb5d-409d-8a14-b9b2e03d125b">
        <symbol
           overflow="visible"
           id="id-52bff12a-96b9-45b5-b436-cb7763fdb1a1">
          <path
             style="stroke:none;stroke-width:0"
             d=""
             id="id-2de25d73-753b-4510-b4a5-da0e9df484f1" />
        </symbol>
        <symbol
           overflow="visible"
           id="id-12fc8fe1-9a90-440e-a970-103bc65e8622">
          <path
             style="stroke:none;stroke-width:0"
             d="M 4.828125,-4.203125 7.234375,-6.1875 c 0.21875,-0.1875 0.625,-0.1875 0.9375,-0.1875 h 0.15625 V -6.84375 C 7.9375,-6.8125 7.359375,-6.8125 7.3125,-6.8125 c -0.375,0 -1.09375,0 -1.453125,-0.03125 V -6.375 c 0.125,0 0.328125,0 0.578125,0.0625 0.15625,0.03125 0.046875,0.015625 0.125,0.046875 L 2.875,-3.1875 V -6.375 h 1.078125 v -0.46875 c -0.375,0.03125 -1.34375,0.03125 -1.78125,0.03125 -0.421875,0 -1.40625,0 -1.78125,-0.03125 V -6.375 H 1.46875 v 5.90625 H 0.390625 V 0 c 0.375,-0.03125 1.359375,-0.03125 1.78125,-0.03125 0.4375,0 1.40625,0 1.78125,0.03125 V -0.46875 H 2.875 V -2.5625 l 1,-0.828125 2.0625,2.703125 C 5.984375,-0.625 5.984375,-0.609375 6.015625,-0.546875 5.828125,-0.46875 5.625,-0.46875 5.28125,-0.46875 V 0 c 0.40625,-0.03125 1.3125,-0.03125 1.75,-0.03125 0.40625,0 1.09375,0 1.46875,0.03125 V -0.46875 H 8.203125 c -0.53125,0 -0.5625,-0.046875 -0.671875,-0.203125 z m 0,0"
             id="id-350ea1c5-8fad-4453-bb03-40f28b4e70e3" />
        </symbol>
        <symbol
           overflow="visible"
           id="id-db741c76-ed49-4925-ade6-82b0276799e2">
          <path
             style="stroke:none;stroke-width:0"
             d=""
             id="id-e75efc5b-2d3f-45fc-9403-38f58592f1de" />
        </symbol>
        <symbol
           overflow="visible"
           id="id-dd934bb5-ef7d-4896-8370-42fd8d3b0fe8">
          <path
             style="stroke:none;stroke-width:0"
             d="m 1.578125,-0.78125 c -0.09375,0.390625 -0.109375,0.46875 -0.90625,0.46875 -0.15625,0 -0.265625,0 -0.265625,0.1875 C 0.40625,0 0.484375,0 0.671875,0 h 3.3125 c 2.0625,0 4.03125,-2.109375 4.03125,-4.28125 0,-1.40625 -0.84375,-2.53125 -2.34375,-2.53125 h -3.34375 c -0.1875,0 -0.296875,0 -0.296875,0.1875 0,0.125 0.078125,0.125 0.28125,0.125 0.125,0 0.3125,0.015625 0.421875,0.015625 0.171875,0.03125 0.21875,0.046875 0.21875,0.171875 0,0.03125 0,0.0625 -0.03125,0.1875 z M 3.734375,-6.125 C 3.828125,-6.46875 3.84375,-6.5 4.28125,-6.5 h 1.0625 c 0.96875,0 1.796875,0.53125 1.796875,1.84375 0,0.484375 -0.1875,2.125 -1.046875,3.21875 -0.28125,0.375 -1.0625,1.125 -2.296875,1.125 h -1.125 c -0.140625,0 -0.15625,0 -0.21875,0 -0.09375,-0.015625 -0.125,-0.03125 -0.125,-0.109375 0,-0.03125 0,-0.046875 0.046875,-0.21875 z m 0,0"
             id="id-6f3e3dd6-9f80-43a3-96c5-0ae34fb62f57" />
        </symbol>
        <symbol
           overflow="visible"
           id="id-c1ddbde2-9fb9-48fa-8994-9da0a21327f4">
          <path
             style="stroke:none;stroke-width:0"
             d=""
             id="id-2d433549-bfa5-4d6a-9280-9544cefe4bd0" />
        </symbol>
        <symbol
           overflow="visible"
           id="id-dc8ddcde-27d9-4a5d-b4d1-55ea0c4b395f">
          <path
             style="stroke:none;stroke-width:0"
             d="M 3.515625,-1.265625 H 3.28125 c -0.015625,0.15625 -0.09375,0.5625 -0.1875,0.625 C 3.046875,-0.59375 2.515625,-0.59375 2.40625,-0.59375 H 1.125 c 0.734375,-0.640625 0.984375,-0.84375 1.390625,-1.171875 0.515625,-0.40625 1,-0.84375 1,-1.5 0,-0.84375 -0.734375,-1.359375 -1.625,-1.359375 -0.859375,0 -1.453125,0.609375 -1.453125,1.25 0,0.34375 0.296875,0.390625 0.375,0.390625 0.15625,0 0.359375,-0.125 0.359375,-0.375 0,-0.125 -0.046875,-0.375 -0.40625,-0.375 C 0.984375,-4.21875 1.453125,-4.375 1.78125,-4.375 c 0.703125,0 1.0625,0.546875 1.0625,1.109375 0,0.609375 -0.4375,1.078125 -0.65625,1.328125 L 0.515625,-0.265625 C 0.4375,-0.203125 0.4375,-0.1875 0.4375,0 h 2.875 z m 0,0"
             id="id-6a0d6a00-5ce4-44bd-94c5-be82d9df7bb5" />
        </symbol>
        <symbol
           overflow="visible"
           id="id-bf0f869a-f6b4-449e-a9d9-3eddc0d7a4ba">
          <path
             style="stroke:none;stroke-width:0"
             d=""
             id="id-1e62a5dc-e4c4-442a-bfbf-adbdd5abc4f8" />
        </symbol>
        <symbol
           overflow="visible"
           id="id-c260ccb8-6c7c-4ea8-90e2-adb4a62ceab0">
          <path
             style="stroke:none;stroke-width:0"
             d="M 3.875,-2.765625 1.890625,-4.75 C 1.765625,-4.875 1.75,-4.890625 1.671875,-4.890625 1.5625,-4.890625 1.46875,-4.8125 1.46875,-4.6875 c 0,0.0625 0.015625,0.078125 0.125,0.1875 l 2,2 -2,2.015625 c -0.109375,0.109375 -0.125,0.125 -0.125,0.1875 0,0.125 0.09375,0.203125 0.203125,0.203125 0.078125,0 0.09375,-0.015625 0.21875,-0.140625 L 3.875,-2.21875 l 2.0625,2.0625 c 0.015625,0.015625 0.078125,0.0625 0.140625,0.0625 0.125,0 0.203125,-0.078125 0.203125,-0.203125 0,-0.015625 0,-0.046875 -0.03125,-0.109375 C 6.234375,-0.421875 4.65625,-1.984375 4.15625,-2.5 l 1.828125,-1.8125 c 0.046875,-0.0625 0.203125,-0.1875 0.25,-0.25 0,-0.015625 0.046875,-0.0625 0.046875,-0.125 0,-0.125 -0.078125,-0.203125 -0.203125,-0.203125 C 6,-4.890625 5.96875,-4.859375 5.859375,-4.75 Z m 0,0"
             id="id-52efaf36-07c7-47f1-8624-ae381ca294ad" />
        </symbol>
        <symbol
           overflow="visible"
           id="id-0cb13864-9446-46a9-ae86-5a199469540a">
          <path
             style="stroke:none;stroke-width:0"
             d=""
             id="id-cab31e7e-2e4c-4a98-bc81-7ba6aafd1c4f" />
        </symbol>
        <symbol
           overflow="visible"
           id="id-90220248-7915-459a-828a-8e0967b09ff5">
          <path
             style="stroke:none;stroke-width:0"
             d="M 2.671875,-3.125 H 3.03125 l 1.5,2.3125 C 4.625,-0.65625 4.859375,-0.265625 4.96875,-0.125 5.046875,0 5.078125,0 5.296875,0 h 1.375 c 0.1875,0 0.34375,0 0.34375,-0.171875 0,-0.09375 -0.0625,-0.15625 -0.15625,-0.171875 C 6.484375,-0.421875 6,-1.09375 5.765625,-1.40625 5.6875,-1.5 5.1875,-2.15625 4.53125,-3.234375 5.40625,-3.40625 6.265625,-3.78125 6.265625,-4.96875 6.265625,-6.34375 4.8125,-6.828125 3.625,-6.828125 H 0.5 c -0.1875,0 -0.34375,0 -0.34375,0.171875 0,0.171875 0.1875,0.171875 0.265625,0.171875 0.578125,0 0.625,0.078125 0.625,0.578125 v 4.984375 c 0,0.5 -0.046875,0.578125 -0.625,0.578125 -0.078125,0 -0.265625,0 -0.265625,0.171875 C 0.15625,0 0.3125,0 0.5,0 H 3.234375 C 3.40625,0 3.5625,0 3.5625,-0.171875 c 0,-0.171875 -0.171875,-0.171875 -0.28125,-0.171875 -0.5625,0 -0.609375,-0.078125 -0.609375,-0.578125 z m 1.921875,-0.5 c 0.28125,-0.359375 0.3125,-0.890625 0.3125,-1.328125 0,-0.484375 -0.0625,-1.015625 -0.375,-1.421875 0.40625,0.09375 1.390625,0.40625 1.390625,1.40625 0,0.65625 -0.296875,1.15625 -1.328125,1.34375 z M 2.671875,-5.9375 c 0,-0.21875 0,-0.546875 0.625,-0.546875 0.84375,0 1.265625,0.359375 1.265625,1.53125 0,1.28125 -0.3125,1.46875 -1.890625,1.46875 z M 1.3125,-0.34375 C 1.390625,-0.53125 1.390625,-0.8125 1.390625,-0.890625 V -5.9375 c 0,-0.09375 0,-0.359375 -0.078125,-0.546875 h 1.140625 c -0.125,0.171875 -0.125,0.359375 -0.125,0.515625 v 5.078125 c 0,0.09375 0,0.359375 0.078125,0.546875 z M 3.4375,-3.125 c 0.078125,-0.015625 0.109375,-0.03125 0.1875,-0.03125 0.15625,0 0.375,-0.015625 0.515625,-0.03125 0.15625,0.234375 1.234375,2.015625 2.0625,2.84375 h -0.96875 z m 0,0"
             id="id-121a5f77-f8d7-45e2-9601-4c4a7ea3278d" />
        </symbol>
      </g>
    </defs>
    <defs
       id="id-98864433-361a-48c3-90a5-82203ba73492">
      <g
         id="id-ecad3dcd-9371-46e8-90f2-75df9926b93f">
        <symbol
           overflow="visible"
           id="id-b474e214-c826-4597-919a-b2e4bea347bc">
          <path
             style="stroke:none;stroke-width:0"
             d=""
             id="id-7bc07535-510c-4bc2-b3e4-f996ab802c54" />
        </symbol>
        <symbol
           overflow="visible"
           id="id-79ec4563-ba51-459e-9b1b-1aa7017df740">
          <path
             style="stroke:none;stroke-width:0"
             d="m 4.75,-2.359375 c 0,-1.5625 -0.921875,-2.046875 -1.65625,-2.046875 -1.375,0 -2.6875,1.421875 -2.6875,2.828125 0,0.9375 0.59375,1.6875 1.625,1.6875 0.625,0 1.34375,-0.234375 2.09375,-0.84375 0.125,0.53125 0.453125,0.84375 0.90625,0.84375 0.53125,0 0.84375,-0.546875 0.84375,-0.703125 0,-0.078125 -0.0625,-0.109375 -0.125,-0.109375 -0.0625,0 -0.09375,0.03125 -0.125,0.109375 -0.1875,0.484375 -0.546875,0.484375 -0.5625,0.484375 -0.3125,0 -0.3125,-0.78125 -0.3125,-1.015625 0,-0.203125 0,-0.234375 0.109375,-0.34375 C 5.796875,-2.65625 6,-3.8125 6,-3.8125 6,-3.84375 5.984375,-3.921875 5.875,-3.921875 c -0.09375,0 -0.09375,0.03125 -0.140625,0.21875 -0.1875,0.625 -0.515625,1.375 -0.984375,1.96875 z m -0.65625,1.375 c -0.890625,0.765625 -1.65625,0.875 -2.046875,0.875 -0.59375,0 -0.90625,-0.453125 -0.90625,-1.09375 0,-0.484375 0.265625,-1.5625 0.578125,-2.0625 C 2.1875,-4 2.734375,-4.1875 3.078125,-4.1875 c 0.984375,0 0.984375,1.3125 0.984375,2.078125 0,0.375 0,0.953125 0.03125,1.125 z m 0,0"
             id="id-42abb9bc-64bb-4219-8365-004bfbcd45b7" />
        </symbol>
        <symbol
           overflow="visible"
           id="id-c916e342-6153-4201-9fca-7bb1ad0bdd15">
          <path
             style="stroke:none;stroke-width:0"
             d="m 5.734375,-5.671875 c 0,-0.75 -0.546875,-1.359375 -1.359375,-1.359375 -0.578125,0 -0.859375,0.15625 -1.203125,0.40625 C 2.625,-6.21875 2.078125,-5.25 1.890625,-4.5 L 0.296875,1.828125 C 0.296875,1.875 0.34375,1.9375 0.421875,1.9375 0.5,1.9375 0.53125,1.90625 0.53125,1.890625 L 1.234375,-0.875 c 0.1875,0.609375 0.625,0.96875 1.359375,0.96875 C 3.3125,0.09375 4.0625,-0.25 4.515625,-0.6875 5,-1.140625 5.3125,-1.78125 5.3125,-2.515625 c 0,-0.71875 -0.375,-1.25 -0.734375,-1.484375 0.578125,-0.34375 1.15625,-0.953125 1.15625,-1.671875 z M 3.9375,-4.015625 c -0.125,0.046875 -0.234375,0.0625 -0.484375,0.0625 -0.140625,0 -0.328125,0.015625 -0.4375,-0.03125 0.03125,-0.109375 0.390625,-0.078125 0.5,-0.078125 0.203125,0 0.296875,0 0.421875,0.046875 z M 5.171875,-5.90625 c 0,0.703125 -0.375,1.421875 -0.890625,1.734375 C 4,-4.28125 3.8125,-4.296875 3.515625,-4.296875 c -0.21875,0 -0.78125,-0.015625 -0.78125,0.3125 0,0.28125 0.515625,0.25 0.6875,0.25 0.375,0 0.53125,0 0.828125,-0.125 0.375,0.359375 0.421875,0.671875 0.4375,1.125 0.015625,0.578125 -0.21875,1.328125 -0.5,1.71875 C 3.796875,-0.484375 3.125,-0.125 2.5625,-0.125 c -0.765625,0 -1.140625,-0.578125 -1.140625,-1.28125 0,-0.09375 0,-0.25 0.046875,-0.4375 L 2.109375,-4.359375 C 2.328125,-5.21875 3.046875,-6.8125 4.25,-6.8125 c 0.578125,0 0.921875,0.3125 0.921875,0.90625 z m 0,0"
             id="id-aa502d1a-2380-47d3-8a21-5fc3fc4f3776" />
        </symbol>
        <symbol
           overflow="visible"
           id="id-19f5daf1-1b1e-4926-9ccf-1a35d4744a6b">
          <path
             style="stroke:none;stroke-width:0"
             d="m 3.234375,-5.765625 c 0.171875,0.171875 0.40625,0.171875 0.609375,0.171875 0.25,0 0.875,0 0.875,-0.3125 0,-0.25 -0.390625,-0.265625 -0.796875,-0.265625 -0.109375,0 -0.375,0 -0.625,0.09375 -0.0625,-0.109375 -0.078125,-0.15625 -0.078125,-0.375 0,-0.140625 0.046875,-0.34375 0.046875,-0.359375 0,-0.078125 -0.046875,-0.140625 -0.109375,-0.140625 -0.1875,0 -0.1875,0.46875 -0.1875,0.5 0,0.15625 0.03125,0.34375 0.109375,0.484375 -1.046875,0.53125 -2.625,2.375 -2.625,4.296875 0,1.40625 0.90625,1.71875 1.625,1.953125 C 2.375,0.390625 2.40625,0.390625 2.6875,0.484375 c 0.21875,0.078125 0.625,0.21875 0.625,0.6875 0,0.265625 -0.1875,0.65625 -0.5625,0.65625 -0.25,0 -0.53125,-0.125 -0.734375,-0.296875 C 1.9375,1.46875 1.9375,1.453125 1.890625,1.453125 1.84375,1.453125 1.796875,1.5 1.796875,1.5625 c 0,0.109375 0.421875,0.484375 0.953125,0.484375 0.625,0 1.09375,-0.640625 1.09375,-1.203125 C 3.84375,0.453125 3.65625,0.25 3.5625,0.171875 3.40625,-0.015625 3.203125,-0.078125 2.625,-0.28125 1.828125,-0.546875 1.671875,-0.59375 1.421875,-0.8125 1,-1.1875 1,-1.75 1,-1.9375 1,-3.484375 2.21875,-5.234375 3.234375,-5.765625 Z M 3.453125,-5.875 c 0.15625,-0.078125 0.328125,-0.078125 0.46875,-0.078125 0.328125,0 0.359375,0.015625 0.546875,0.0625 -0.078125,0.03125 -0.1875,0.078125 -0.625,0.078125 -0.203125,0 -0.28125,0 -0.390625,-0.0625 z m 0,0"
             id="id-9e7d68fa-6ac4-4941-af70-6a144c9e549e" />
        </symbol>
      </g>
    </defs>
  </defs>
  <g
     inkscape:label="001_klein"
     inkscape:groupmode="layer"
     id="layer1"
     style="display:inline">
    <g
       inkscape:groupmode="layer"
       id="layer5"
       inkscape:label="001_central_circle"
       style="display:inline">
      <path
         style="fill:none;stroke:#000000;stroke-width:0.35268;stroke-linecap:butt;stroke-linejoin:miter;stroke-miterlimit:4;stroke-dasharray:1.41075, 1.41075;stroke-dashoffset:0;stroke-opacity:1"
         d="m 98.662321,205.85831 c 2.610709,-0.64111 7.858159,-2.37891 10.661579,-3.51455 2.53707,-1.52644 7.92891,-3.35738 9.93509,-5.57787 1.51541,-1.79055 2.04291,-4.92794 -0.0612,-6.48967 -4.9419,-4.2961 -11.81708,-4.93953 -18.09291,-5.05048 -11.075368,-0.0964 -22.21653,2.35288 -32.129704,7.31507 -3.272534,1.85921 -6.39054,5.27086 -5.852453,9.30428 -0.112287,2.60542 0.895034,6.06072 3.912137,6.42734 6.340216,1.3435 13.286289,0.44616 19.66555,-0.1008"
         id="path24221"
         sodipodi:nodetypes="csscccccc" />
      <path
         style="fill:none;stroke:#000000;stroke-width:0.353231;stroke-dasharray:none;stroke-opacity:1"
         d="m 84.051064,206.11377 -0.701297,-1.90911 -1.012996,1.83122"
         id="path4768" />
      <path
         style="fill:none;stroke:#000000;stroke-width:0.353231;stroke-dasharray:none;stroke-opacity:1"
         d="m 93.876471,202.54883 1.246759,2.02604 0.740266,-2.14288"
         id="path4833" />
    </g>
    <g
       id="g12478"
       transform="matrix(1.3328589,0.01697671,-0.01697671,1.3328589,12.818069,-13.218072)">
      <g
         id="g12392"
         transform="rotate(8.3254922,58.227839,164.86034)">
        <path
           style="fill:none;stroke:#000000;stroke-width:0.264583px;stroke-linecap:butt;stroke-linejoin:miter;stroke-opacity:1"
           d="m 58.92489,170.55497 c -8.957615,2.29994 -10.783952,1.77396 -18.16767,0.28352 -10.459004,-2.1112 -17.143934,-10.15622 0.166226,-18.93735 11.600681,-7.35376 33.724503,-13.1991 44.630021,-8.32776 2.990567,1.9793 3.048317,7.74647 -1.779215,12.8675 -3.797384,4.02824 -8.823364,8.45977 -15.443005,10.72275"
           id="path6794"
           sodipodi:nodetypes="csccsc" />
      </g>
      <path
         style="fill:none;stroke:#000000;stroke-width:0.264583px;stroke-linecap:butt;stroke-linejoin:miter;stroke-opacity:1"
         d="m 71.888159,155.44741 c -7.32459,-4.23995 -19.493102,-3.61929 -22.938261,5.38931"
         id="path8983" />
      <path
         style="fill:none;stroke:#000000;stroke-width:0.264583px;stroke-linecap:butt;stroke-linejoin:miter;stroke-opacity:1"
         d="m 69.988243,154.73808 c -2.386301,2.09741 -1.989221,2.15054 -5.51445,3.87639 m -7.958076,1.33693 c -2.661378,0.37917 -4.805438,-0.0418 -6.733139,-0.80733"
         id="path10041"
         sodipodi:nodetypes="cccc" />
    </g>
    <path
       style="fill:none;stroke:#000000;stroke-width:0.266597;stroke-linecap:butt;stroke-linejoin:miter;stroke-miterlimit:4;stroke-dasharray:none;stroke-opacity:1"
       d="m 85.308683,200.90431 c -3.811221,0.46848 -1.788301,14.2341 2.014054,14.1199"
       id="path17212"
       sodipodi:nodetypes="cc" />
    <path
       style="fill:none;stroke:#000000;stroke-width:0.266597;stroke-linecap:butt;stroke-linejoin:miter;stroke-miterlimit:4;stroke-dasharray:none;stroke-dashoffset:0;stroke-opacity:1"
       d="m 85.297747,200.87385 c 3.516806,-0.0697 5.9773,12.74703 2.041606,14.27156"
       id="path19392"
       sodipodi:nodetypes="cc" />
    <path
       style="fill:none;stroke:#000000;stroke-width:0.266597;stroke-linecap:butt;stroke-linejoin:miter;stroke-miterlimit:4;stroke-dasharray:none;stroke-opacity:1"
       d="m 96.70467,199.1739 c -4.362222,0.90933 0.157135,13.61327 3.4777,13.37229"
       id="path4764"
       sodipodi:nodetypes="cc" />
    <path
       style="fill:none;stroke:#000000;stroke-width:0.266597;stroke-linecap:butt;stroke-linejoin:miter;stroke-miterlimit:4;stroke-dasharray:2.13277, 2.13277;stroke-dashoffset:0;stroke-opacity:1"
       d="m 97.024338,199.30876 c 3.516802,-0.0697 5.886272,12.57016 3.350322,13.32321"
       id="path4766"
       sodipodi:nodetypes="cc" />
  </g>
  <g
     inkscape:groupmode="layer"
     id="layer2"
     inkscape:label="100_tube"
     style="display:inline"
     sodipodi:insensitive="true">
    <path
       style="fill:none;stroke:#000000;stroke-width:0.264583px;stroke-linecap:butt;stroke-linejoin:miter;stroke-opacity:1"
       d="M 27.039059,129.87141 140.08356,129.5695"
       id="path12516"
       sodipodi:nodetypes="cc" />
    <g
       id="g12521"
       transform="translate(21.166667,42.862512)">
      <path
         style="fill:none;stroke:#000000;stroke-width:0.264583px;stroke-linecap:butt;stroke-linejoin:miter;stroke-opacity:1"
         d="m 6.3522857,112.75904 112.5901043,0.0637"
         id="path12518" />
    </g>
    <path
       style="fill:none;stroke:#000000;stroke-width:0.15;stroke-linecap:butt;stroke-linejoin:miter;stroke-miterlimit:4;stroke-dasharray:0.9, 0.9;stroke-dashoffset:0;stroke-opacity:1"
       d="m 28.359024,142.58424 113.138486,0.25231"
       id="path22616"
       sodipodi:nodetypes="cc" />
    <g
       id="g16608"
       transform="translate(-3.7041693,42.862512)">
      <path
         style="fill:none;stroke:#000000;stroke-width:0.264583px;stroke-linecap:butt;stroke-linejoin:miter;stroke-opacity:1"
         d="m 30.539393,87.188917 c -5.595607,2.864361 -3.238461,25.820033 1.078697,25.708843"
         id="path12641"
         sodipodi:nodetypes="cc" />
      <path
         style="fill:none;stroke:#000000;stroke-width:0.264583;stroke-linecap:butt;stroke-linejoin:miter;stroke-miterlimit:4;stroke-dasharray:2.11666, 2.11666;stroke-dashoffset:0;stroke-opacity:1"
         d="m 31.61809,112.89776 c 3.82388,-0.25084 4.993045,-25.565834 -1.078697,-25.708843"
         id="path13864"
         sodipodi:nodetypes="cc" />
    </g>
    <g
       id="g16614"
       transform="translate(-3.7041693,42.862512)">
      <path
         style="fill:none;stroke:#000000;stroke-width:0.264583px;stroke-linecap:butt;stroke-linejoin:miter;stroke-opacity:1"
         d="m 30.539393,87.188917 c -5.595607,2.864361 -3.238461,25.820033 1.078697,25.708843"
         id="path16610"
         sodipodi:nodetypes="cc" />
      <path
         style="fill:none;stroke:#000000;stroke-width:0.264583;stroke-linecap:butt;stroke-linejoin:miter;stroke-miterlimit:4;stroke-dasharray:2.11666, 2.11666;stroke-dashoffset:0;stroke-opacity:1"
         d="m 31.61809,112.89776 c 3.82388,-0.25084 4.993045,-25.565834 -1.078697,-25.708843"
         id="path16612"
         sodipodi:nodetypes="cc" />
    </g>
    <g
       id="g16700"
       transform="translate(39.15833,42.862512)">
      <path
         style="fill:none;stroke:#000000;stroke-width:0.264583px;stroke-linecap:butt;stroke-linejoin:miter;stroke-opacity:1"
         d="m 30.539393,87.188917 c -5.595607,2.864361 -3.238461,25.820033 1.078697,25.708843"
         id="path16696"
         sodipodi:nodetypes="cc" />
      <path
         style="fill:none;stroke:#000000;stroke-width:0.264583;stroke-linecap:butt;stroke-linejoin:miter;stroke-miterlimit:4;stroke-dasharray:2.11666, 2.11666;stroke-dashoffset:0;stroke-opacity:1"
         d="m 31.61809,112.89776 c 3.82388,-0.25084 4.993045,-25.565834 -1.078697,-25.708843"
         id="path16698"
         sodipodi:nodetypes="cc" />
    </g>
    <g
       id="g16706"
       transform="translate(39.15833,42.862512)">
      <path
         style="fill:none;stroke:#000000;stroke-width:0.264583px;stroke-linecap:butt;stroke-linejoin:miter;stroke-opacity:1"
         d="m 30.539393,87.188917 c -5.595607,2.864361 -3.238461,25.820033 1.078697,25.708843"
         id="path16702"
         sodipodi:nodetypes="cc" />
      <path
         style="fill:none;stroke:#000000;stroke-width:0.264583;stroke-linecap:butt;stroke-linejoin:miter;stroke-miterlimit:4;stroke-dasharray:2.11666, 2.11666;stroke-dashoffset:0;stroke-opacity:1"
         d="m 31.61809,112.89776 c 3.82388,-0.25084 4.993045,-25.565834 -1.078697,-25.708843"
         id="path16704"
         sodipodi:nodetypes="cc" />
    </g>
    <g
       id="g16712"
       transform="translate(82.550006,42.862512)">
      <path
         style="fill:none;stroke:#000000;stroke-width:0.264583px;stroke-linecap:butt;stroke-linejoin:miter;stroke-opacity:1"
         d="m 30.539393,87.188917 c -5.595607,2.864361 -3.238461,25.820033 1.078697,25.708843"
         id="path16708"
         sodipodi:nodetypes="cc" />
      <path
         style="fill:none;stroke:#000000;stroke-width:0.264583;stroke-linecap:butt;stroke-linejoin:miter;stroke-miterlimit:4;stroke-dasharray:2.11666, 2.11666;stroke-dashoffset:0;stroke-opacity:1"
         d="m 31.61809,112.89776 c 3.82388,-0.25084 4.993045,-25.565834 -1.078697,-25.708843"
         id="path16710"
         sodipodi:nodetypes="cc" />
    </g>
    <g
       id="g16718"
       transform="translate(82.550006,42.862512)">
      <path
         style="fill:none;stroke:#000000;stroke-width:0.264583px;stroke-linecap:butt;stroke-linejoin:miter;stroke-opacity:1"
         d="m 30.539393,87.188917 c -5.595607,2.864361 -3.238461,25.820033 1.078697,25.708843"
         id="path16714"
         sodipodi:nodetypes="cc" />
      <path
         style="fill:none;stroke:#000000;stroke-width:0.264583;stroke-linecap:butt;stroke-linejoin:miter;stroke-miterlimit:4;stroke-dasharray:2.11666, 2.11666;stroke-dashoffset:0;stroke-opacity:1"
         d="m 31.61809,112.89776 c 3.82388,-0.25084 4.993045,-25.565834 -1.078697,-25.708843"
         id="path16716"
         sodipodi:nodetypes="cc" />
    </g>
    <g
       id="g16898"
       transform="translate(104.77502,42.862512)">
      <path
         style="fill:none;stroke:#000000;stroke-width:0.264583px;stroke-linecap:butt;stroke-linejoin:miter;stroke-opacity:1"
         d="m 30.539393,87.188917 c -5.595607,2.864361 -3.238461,25.820033 1.078697,25.708843"
         id="path16894"
         sodipodi:nodetypes="cc" />
      <path
         style="fill:none;stroke:#000000;stroke-width:0.264583;stroke-linecap:butt;stroke-linejoin:miter;stroke-miterlimit:4;stroke-dasharray:2.11666, 2.11666;stroke-dashoffset:0;stroke-opacity:1"
         d="m 31.61809,112.89776 c 3.82388,-0.25084 4.993045,-25.565834 -1.078697,-25.708843"
         id="path16896"
         sodipodi:nodetypes="cc" />
    </g>
    <circle
       style="fill:#000000;fill-opacity:1;stroke:none;stroke-width:0.111246;stroke-linecap:round;stroke-miterlimit:4;stroke-dasharray:0.667475, 0.667475;stroke-dashoffset:0"
       id="path22800"
       cx="136.23294"
       cy="142.81116"
       r="0.5" />
    <circle
       style="fill:#000000;fill-opacity:1;stroke:none;stroke-width:0.111246;stroke-linecap:round;stroke-miterlimit:4;stroke-dasharray:0.667475, 0.667475;stroke-dashoffset:0"
       id="circle23050"
       cx="113.92848"
       cy="142.78732"
       r="0.5" />
    <circle
       style="fill:#000000;fill-opacity:1;stroke:none;stroke-width:0.111246;stroke-linecap:round;stroke-miterlimit:4;stroke-dasharray:0.667475, 0.667475;stroke-dashoffset:0"
       id="circle23052"
       cx="70.306404"
       cy="142.6602"
       r="0.5" />
    <circle
       style="fill:#000000;fill-opacity:1;stroke:none;stroke-width:0.111246;stroke-linecap:round;stroke-miterlimit:4;stroke-dasharray:0.667475, 0.667475;stroke-dashoffset:0"
       id="circle23054"
       cx="27.654476"
       cy="142.58238"
       r="0.5" />
    <g
       id="g4573"
       transform="translate(16.933328,42.862512)">
      <path
         style="fill:none;stroke:#000000;stroke-width:0.264583px;stroke-linecap:butt;stroke-linejoin:miter;stroke-opacity:1"
         d="m 30.539393,87.188917 c -5.595607,2.864361 -3.238461,25.820033 1.078697,25.708843"
         id="path4569"
         sodipodi:nodetypes="cc" />
      <path
         style="fill:none;stroke:#000000;stroke-width:0.264583;stroke-linecap:butt;stroke-linejoin:miter;stroke-miterlimit:4;stroke-dasharray:2.11666, 2.11666;stroke-dashoffset:0;stroke-opacity:1"
         d="m 31.61809,112.89776 c 3.82388,-0.25084 4.993045,-25.565834 -1.078697,-25.708843"
         id="path4571"
         sodipodi:nodetypes="cc" />
    </g>
    <g
       id="g4579"
       transform="translate(16.933328,42.862512)">
      <path
         style="fill:none;stroke:#000000;stroke-width:0.264583px;stroke-linecap:butt;stroke-linejoin:miter;stroke-opacity:1"
         d="m 30.539393,87.188917 c -5.595607,2.864361 -3.238461,25.820033 1.078697,25.708843"
         id="path4575"
         sodipodi:nodetypes="cc" />
      <path
         style="fill:none;stroke:#000000;stroke-width:0.264583;stroke-linecap:butt;stroke-linejoin:miter;stroke-miterlimit:4;stroke-dasharray:2.11666, 2.11666;stroke-dashoffset:0;stroke-opacity:1"
         d="m 31.61809,112.89776 c 3.82388,-0.25084 4.993045,-25.565834 -1.078697,-25.708843"
         id="path4577"
         sodipodi:nodetypes="cc" />
    </g>
    <circle
       style="fill:#000000;fill-opacity:1;stroke:none;stroke-width:0.111246;stroke-linecap:round;stroke-miterlimit:4;stroke-dasharray:0.667475, 0.667475;stroke-dashoffset:0"
       id="circle4581"
       cx="48.081398"
       cy="142.6602"
       r="0.5" />
    <g
       id="g4587"
       transform="translate(60.324992,42.862512)">
      <path
         style="fill:none;stroke:#000000;stroke-width:0.264583px;stroke-linecap:butt;stroke-linejoin:miter;stroke-opacity:1"
         d="m 30.539393,87.188917 c -5.595607,2.864361 -3.238461,25.820033 1.078697,25.708843"
         id="path4583"
         sodipodi:nodetypes="cc" />
      <path
         style="fill:none;stroke:#000000;stroke-width:0.264583;stroke-linecap:butt;stroke-linejoin:miter;stroke-miterlimit:4;stroke-dasharray:2.11666, 2.11666;stroke-dashoffset:0;stroke-opacity:1"
         d="m 31.61809,112.89776 c 3.82388,-0.25084 4.993045,-25.565834 -1.078697,-25.708843"
         id="path4585"
         sodipodi:nodetypes="cc" />
    </g>
    <g
       id="g4593"
       transform="translate(60.324992,42.862512)">
      <path
         style="fill:none;stroke:#000000;stroke-width:0.264583px;stroke-linecap:butt;stroke-linejoin:miter;stroke-opacity:1"
         d="m 30.539393,87.188917 c -5.595607,2.864361 -3.238461,25.820033 1.078697,25.708843"
         id="path4589"
         sodipodi:nodetypes="cc" />
      <path
         style="fill:none;stroke:#000000;stroke-width:0.264583;stroke-linecap:butt;stroke-linejoin:miter;stroke-miterlimit:4;stroke-dasharray:2.11666, 2.11666;stroke-dashoffset:0;stroke-opacity:1"
         d="m 31.61809,112.89776 c 3.82388,-0.25084 4.993045,-25.565834 -1.078697,-25.708843"
         id="path4591"
         sodipodi:nodetypes="cc" />
    </g>
    <circle
       style="fill:#000000;fill-opacity:1;stroke:none;stroke-width:0.111246;stroke-linecap:round;stroke-miterlimit:4;stroke-dasharray:0.667475, 0.667475;stroke-dashoffset:0"
       id="circle4595"
       cx="91.703499"
       cy="142.78732"
       r="0.5" />
  </g>
  <g
     id="layer3"
     inkscape:label="200_sandwich"
     style="display:inline"
     sodipodi:insensitive="true">
    <path
       style="fill:none;stroke:#000000;stroke-width:0.264583px;stroke-linecap:butt;stroke-linejoin:miter;stroke-opacity:1"
       d="M 62.970749,52.443915 27.330363,85.234219 134.49025,85.537469"
       id="path21704"
       sodipodi:insensitive="true" />
    <path
       style="fill:none;stroke:#000000;stroke-width:0.264583px;stroke-linecap:butt;stroke-linejoin:miter;stroke-opacity:1"
       d="m 134.49025,85.537469 35.6405,-32.790304 -107.1601,-0.30325"
       id="path21786"
       sodipodi:insensitive="true" />
    <path
       style="fill:none;stroke:#000000;stroke-width:0.264583px;stroke-linecap:butt;stroke-linejoin:miter;stroke-opacity:1"
       d="m 27.330363,85.234219 0.298399,15.882671"
       id="path21825"
       sodipodi:insensitive="true" />
    <path
       style="fill:none;stroke:#000000;stroke-width:0.264583px;stroke-linecap:butt;stroke-linejoin:miter;stroke-opacity:1"
       d="m 134.49025,85.537469 0.2984,15.882671"
       id="path21827"
       sodipodi:insensitive="true" />
    <path
       style="fill:none;stroke:#000000;stroke-width:0.264583px;stroke-linecap:butt;stroke-linejoin:miter;stroke-opacity:1"
       d="m 170.13075,52.747165 0.2984,15.882668"
       id="path21909"
       sodipodi:insensitive="true" />
    <path
       style="fill:none;stroke:#000000;stroke-width:0.264583;stroke-linecap:butt;stroke-linejoin:miter;stroke-miterlimit:4;stroke-dasharray:1.5875, 1.5875;stroke-dashoffset:0;stroke-opacity:1"
       d="m 27.628762,101.11689 107.159888,0.30325 35.6405,-32.790307"
       id="path22501"
       sodipodi:insensitive="true" />
    <g
       id="layer6"
       inkscape:label="meridian_lines">
      <path
         style="display:inline;fill:none;stroke:#000000;stroke-width:0.264583px;stroke-linecap:butt;stroke-linejoin:miter;stroke-opacity:1"
         d="m 83.236449,52.434537 -35.36166,32.910698 0.254252,15.763515"
         id="path26577"
         inkscape:label="m0" />
      <path
         style="display:inline;fill:none;stroke:#000000;stroke-width:0.264583px;stroke-linecap:butt;stroke-linejoin:miter;stroke-opacity:1"
         d="M 104.93225,52.434537 69.570617,85.345235 69.824869,101.10875"
         id="path26659"
         inkscape:label="m1" />
      <path
         style="display:inline;fill:none;stroke:#000000;stroke-width:0.264583px;stroke-linecap:butt;stroke-linejoin:miter;stroke-opacity:1"
         d="m 127.13673,52.625225 -35.870269,32.72001 0.25426,15.763515"
         id="path26661"
         sodipodi:nodetypes="ccc"
         inkscape:label="m2" />
      <path
         style="display:inline;fill:none;stroke:#000000;stroke-width:0.264583px;stroke-linecap:butt;stroke-linejoin:miter;stroke-opacity:1"
         d="m 148.8327,52.625225 -35.87032,32.72001 0.25426,15.763515"
         id="path4349"
         sodipodi:nodetypes="ccc"
         inkscape:label="m3" />
    </g>
    <g
       inkscape:groupmode="layer"
       id="layer7"
       inkscape:label="parallel_lines">
      <path
         style="display:inline;fill:#008000;stroke:#000000;stroke-width:0.265;stroke-dasharray:none;stroke-opacity:1"
         d="M 51.186624,63.295258 158.81233,63.269108"
         id="path4434"
         sodipodi:nodetypes="cc"
         inkscape:label="l0" />
      <path
         style="display:inline;fill:#008000;stroke:#000000;stroke-width:0.265;stroke-dasharray:none;stroke-opacity:1"
         d="M 39.544956,73.878592 147.17065,73.852442"
         id="path4193"
         sodipodi:nodetypes="cc"
         inkscape:label="l1" />
    </g>
  </g>
  <g
     inkscape:groupmode="layer"
     id="layer4"
     inkscape:label="arrows"
     style="display:inline">
    <g
       style="fill:#000000;fill-opacity:1"
       id="id-01be36a7-88c2-400b-b049-a0b934813a61"
       transform="matrix(1.228274,0,0,1.228274,-209.79748,28.087562)">
      <g
         transform="translate(283.91819,133.41885)"
         id="g597">
        <path
           style="stroke:none;stroke-width:0"
           d="M 4.828125,-4.203125 7.234375,-6.1875 c 0.21875,-0.1875 0.625,-0.1875 0.9375,-0.1875 h 0.15625 V -6.84375 C 7.9375,-6.8125 7.359375,-6.8125 7.3125,-6.8125 c -0.375,0 -1.09375,0 -1.453125,-0.03125 V -6.375 c 0.125,0 0.328125,0 0.578125,0.0625 0.15625,0.03125 0.046875,0.015625 0.125,0.046875 L 2.875,-3.1875 V -6.375 h 1.078125 v -0.46875 c -0.375,0.03125 -1.34375,0.03125 -1.78125,0.03125 -0.421875,0 -1.40625,0 -1.78125,-0.03125 V -6.375 H 1.46875 v 5.90625 H 0.390625 V 0 c 0.375,-0.03125 1.359375,-0.03125 1.78125,-0.03125 0.4375,0 1.40625,0 1.78125,0.03125 V -0.46875 H 2.875 V -2.5625 l 1,-0.828125 2.0625,2.703125 C 5.984375,-0.625 5.984375,-0.609375 6.015625,-0.546875 5.828125,-0.46875 5.625,-0.46875 5.28125,-0.46875 V 0 c 0.40625,-0.03125 1.3125,-0.03125 1.75,-0.03125 0.40625,0 1.09375,0 1.46875,0.03125 V -0.46875 H 8.203125 c -0.53125,0 -0.5625,-0.046875 -0.671875,-0.203125 z m 0,0"
           id="id-975ab40e-da5d-4e3b-b818-49bdf1dd0800" />
      </g>
    </g>
    <g
       id="g262"
       transform="translate(0.52916667)">
      <g
         id="g237"
         transform="matrix(0.90503315,0,0,0.90503315,37.664379,13.042149)">
        <path
           style="fill:#000000;fill-opacity:1;stroke:none;stroke-width:0"
           d="m 160.46191,146.86544 c -0.11979,0.49913 -0.13975,0.59895 -1.15797,0.59895 -0.19965,0 -0.3394,0 -0.3394,0.23958 0,0.15972 0.0998,0.15972 0.3394,0.15972 h 4.23258 c 2.63537,0 5.15095,-2.69527 5.15095,-5.4704 0,-1.79685 -1.0781,-3.23432 -2.99474,-3.23432 h -4.2725 c -0.23958,0 -0.37934,0 -0.37934,0.23958 0,0.15972 0.0998,0.15972 0.35937,0.15972 0.15972,0 0.3993,0.02 0.53906,0.02 0.21961,0.0399 0.27951,0.0599 0.27951,0.21962 0,0.0399 0,0.0799 -0.0399,0.23958 z m 2.75517,-6.82801 c 0.11979,-0.43923 0.13975,-0.47916 0.69877,-0.47916 h 1.35762 c 1.23782,0 2.29597,0.6788 2.29597,2.35586 0,0.61892 -0.23958,2.71524 -1.33766,4.11278 -0.35936,0.47916 -1.35761,1.43748 -2.93484,1.43748 h -1.43748 c -0.17969,0 -0.19965,0 -0.27951,0 -0.11979,-0.02 -0.15972,-0.0399 -0.15972,-0.13975 0,-0.0399 0,-0.0599 0.0599,-0.27951 z m 0,0"
           id="id-883d1962-0d20-40d2-9c8d-25e82f1796a7" />
        <path
           style="fill:#000000;fill-opacity:1;stroke:none;stroke-width:0"
           d="m 173.83046,141.62616 h -0.29948 c -0.02,0.19965 -0.11979,0.71874 -0.23958,0.7986 -0.0599,0.0599 -0.7387,0.0599 -0.87846,0.0599 h -1.63712 c 0.93835,-0.81856 1.25779,-1.07811 1.77688,-1.49737 0.65884,-0.51909 1.27776,-1.07811 1.27776,-1.91664 0,-1.0781 -0.93836,-1.73695 -2.07636,-1.73695 -1.09807,0 -1.85674,0.77864 -1.85674,1.5972 0,0.43923 0.37933,0.49912 0.47916,0.49912 0.19965,0 0.45919,-0.15972 0.45919,-0.47916 0,-0.15972 -0.0599,-0.47916 -0.51909,-0.47916 0.27951,-0.61891 0.87846,-0.81856 1.29773,-0.81856 0.89842,0 1.35761,0.69877 1.35761,1.41751 0,0.77864 -0.55902,1.37759 -0.83853,1.69702 l -2.13625,2.13626 c -0.0998,0.0799 -0.0998,0.0998 -0.0998,0.3394 h 3.67355 z m 0,0"
           id="id-a4df6db3-d5fd-4023-8754-8c62e08c4553" />
      </g>
      <path
         style="fill:#000000;fill-opacity:1;stroke:none;stroke-width:0"
         d="m 174.87582,143.66548 -2.29475,-2.29475 c -0.14456,-0.14455 -0.16262,-0.16262 -0.25297,-0.16262 -0.12648,0 -0.23489,0.0903 -0.23489,0.23489 0,0.0723 0.0181,0.0903 0.14455,0.21683 l 2.31282,2.31283 -2.31282,2.3309 c -0.12649,0.12647 -0.14455,0.14455 -0.14455,0.21682 0,0.14456 0.10841,0.2349 0.23489,0.2349 0.0903,0 0.10841,-0.0181 0.25297,-0.16262 l 2.29475,-2.29476 2.38511,2.3851 c 0.0181,0.0181 0.0903,0.0723 0.16261,0.0723 0.14456,0 0.2349,-0.0903 0.2349,-0.23489 0,-0.0181 0,-0.0542 -0.0361,-0.12649 -0.0181,-0.0181 -1.84303,-1.82496 -2.42124,-2.42123 l 2.11407,-2.09601 c 0.0542,-0.0723 0.23489,-0.21682 0.2891,-0.2891 0,-0.0181 0.0542,-0.0723 0.0542,-0.14455 0,-0.14455 -0.0903,-0.23489 -0.23489,-0.23489 -0.0903,0 -0.12648,0.0361 -0.25296,0.16261 z m 0,0"
         id="id-4c2f832b-53cb-4644-a684-bbaf61308a93" />
      <path
         style="fill:#000000;fill-opacity:1;stroke:none;stroke-width:0"
         d="m 162.49579,143.2499 h 0.41558 l 1.73463,2.6742 c 0.10841,0.18069 0.37944,0.63242 0.50593,0.79504 0.0903,0.14455 0.12648,0.14455 0.37944,0.14455 h 1.59007 c 0.21683,0 0.39752,0 0.39752,-0.19875 0,-0.10842 -0.0723,-0.18069 -0.18069,-0.19877 -0.43365,-0.0903 -0.9938,-0.86731 -1.26483,-1.22869 -0.0903,-0.10841 -0.66855,-0.8673 -1.42744,-2.11407 1.01186,-0.19875 2.00565,-0.63241 2.00565,-2.00565 0,-1.59006 -1.68041,-2.1502 -3.05365,-2.1502 h -3.61379 c -0.21683,0 -0.39752,0 -0.39752,0.19876 0,0.19875 0.21683,0.19875 0.30717,0.19875 0.66856,0 0.72276,0.0903 0.72276,0.66855 v 5.764 c 0,0.57821 -0.0542,0.66855 -0.72276,0.66855 -0.0903,0 -0.30717,0 -0.30717,0.19877 0,0.19875 0.18069,0.19875 0.39752,0.19875 h 3.16207 c 0.19875,0 0.37944,0 0.37944,-0.19875 0,-0.19877 -0.19875,-0.19877 -0.32524,-0.19877 -0.65049,0 -0.70469,-0.0903 -0.70469,-0.66855 z m 2.22248,-0.57821 c 0.32524,-0.41559 0.36138,-1.02992 0.36138,-1.53586 0,-0.56014 -0.0723,-1.17448 -0.43365,-1.64427 0.46979,0.10842 1.60813,0.46979 1.60813,1.6262 0,0.7589 -0.3433,1.33711 -1.53586,1.55393 z m -2.22248,-2.67421 c 0,-0.25295 0,-0.63241 0.72276,-0.63241 0.97572,0 1.46359,0.4156 1.46359,1.77076 0,1.48165 -0.36138,1.69848 -2.18635,1.69848 z m -1.57199,6.46869 c 0.0903,-0.21683 0.0903,-0.54207 0.0903,-0.63241 v -5.83628 c 0,-0.1084 0,-0.41558 -0.0903,-0.63241 h 1.31903 c -0.14456,0.19877 -0.14456,0.4156 -0.14456,0.59628 v 5.87241 c 0,0.10842 0,0.41558 0.0903,0.63241 z m 2.45737,-3.21627 c 0.0903,-0.0181 0.12649,-0.0361 0.21683,-0.0361 0.18069,0 0.43365,-0.0181 0.59627,-0.0361 0.18069,0.27103 1.42745,2.3309 2.3851,3.28856 h -1.12027 z m 0,0"
         id="id-00e7d8fc-a996-4644-a743-4326fb2d8601" />
    </g>
    <path
       style="fill:none;stroke:#000000;stroke-width:0.264583px;stroke-linecap:butt;stroke-linejoin:miter;stroke-opacity:1;marker-end:url(#Arrow1Lend)"
       d="m 81.288683,107.91613 0.5085,15.00077"
       id="path23138" />
    <path
       style="fill:none;stroke:#000000;stroke-width:0.264583px;stroke-linecap:butt;stroke-linejoin:miter;stroke-opacity:1;marker-end:url(#Arrow1Lend)"
       d="m 81.288683,161.36194 0.5085,15.00077"
       id="path23316" />
    <path
       style="fill:none;stroke:#000000;stroke-width:0.264583px;stroke-linecap:butt;stroke-linejoin:miter;stroke-opacity:1;marker-end:url(#marker27869)"
       d="m 26.684545,81.289179 9.40726,-9.153009"
       id="path27855" />
    <path
       style="fill:#000000;fill-opacity:1;stroke:none"
       d="m 38.791627,107.03693 c -0.265625,0.0156 -0.46875,0.23437 -0.46875,0.45312 0,0.14063 0.09375,0.29688 0.3125,0.29688 0.21875,0 0.453125,-0.17188 0.453125,-0.5625 0,-0.45313 -0.421875,-0.85938 -1.1875,-0.85938 -1.3125,0 -1.6875,1.01563 -1.6875,1.45313 0,0.78125 0.734375,0.92187 1.03125,0.98437 0.515625,0.10938 1.03125,0.21875 1.03125,0.76563 0,0.25 -0.21875,1.09375 -1.421875,1.09375 -0.140625,0 -0.90625,0 -1.140625,-0.53125 0.390625,0.0469 0.640625,-0.25 0.640625,-0.53125 0,-0.21875 -0.171875,-0.34375 -0.375,-0.34375 -0.265625,0 -0.5625,0.20312 -0.5625,0.65625 0,0.5625 0.578125,0.96875 1.421875,0.96875 1.625,0 2.015625,-1.20313 2.015625,-1.65625 0,-0.35938 -0.1875,-0.60938 -0.3125,-0.71875 -0.265625,-0.28125 -0.5625,-0.34375 -1,-0.42188 -0.359375,-0.0781 -0.75,-0.15625 -0.75,-0.60937 0,-0.28125 0.234375,-0.89063 1.109375,-0.89063 0.25,0 0.75,0.0781 0.890625,0.45313 z m 0,0"
       id="path28173" />
    <path
       style="fill:#000000;fill-opacity:1;stroke:none"
       d="m 16.945389,93.923153 c -0.03125,0.15625 -0.09375,0.390625 -0.09375,0.4375 0,0.171875 0.140625,0.265625 0.296875,0.265625 0.125,0 0.296875,-0.07813 0.375,-0.28125 0.01563,-0.03125 0.34375,-1.390625 0.390625,-1.578125 0.07813,-0.328125 0.265625,-1.015625 0.3125,-1.296875 0.04687,-0.125 0.328125,-0.59375 0.5625,-0.8125 0.07813,-0.0625 0.375,-0.328125 0.796875,-0.328125 0.265625,0 0.40625,0.125 0.421875,0.125 -0.296875,0.04687 -0.515625,0.28125 -0.515625,0.546875 0,0.15625 0.109375,0.34375 0.375,0.34375 0.265625,0 0.546875,-0.234375 0.546875,-0.59375 0,-0.34375 -0.3125,-0.640625 -0.828125,-0.640625 -0.640625,0 -1.078125,0.484375 -1.265625,0.765625 -0.09375,-0.453125 -0.453125,-0.765625 -0.921875,-0.765625 -0.453125,0 -0.640625,0.390625 -0.734375,0.5625 -0.171875,0.34375 -0.296875,0.9375 -0.296875,0.96875 0,0.109375 0.09375,0.109375 0.109375,0.109375 0.109375,0 0.109375,-0.01563 0.171875,-0.234375 0.171875,-0.703125 0.375,-1.1875 0.734375,-1.1875 0.15625,0 0.296875,0.07813 0.296875,0.453125 0,0.21875 -0.03125,0.328125 -0.15625,0.84375 z m 0,0"
       id="path28175" />
    <path
       style="fill:none;stroke:#000000;stroke-width:0.264583px;stroke-linecap:butt;stroke-linejoin:miter;stroke-opacity:1;marker-end:url(#marker27869)"
       d="M 24.074112,99.143602 23.91562,86.030007"
       id="path28239"
       sodipodi:nodetypes="cc" />
    <path
       style="fill:none;stroke:#000000;stroke-width:0.264583px;stroke-linecap:butt;stroke-linejoin:miter;stroke-opacity:1;marker-end:url(#marker27869)"
       d="m 30.912498,104.2619 13.132785,-0.042"
       id="path28241"
       sodipodi:nodetypes="cc" />
    <g
       ns:text="$\phi$"
       transform="translate(-36.076117,-21.814275)"
       id="g30380">
      <g
         id="g30378">
        <g
           style="fill:#000000;fill-opacity:1"
           id="g30376">
          <path
             style="stroke:none"
             d="m 64.491562,91.163145 c 0,-0.03125 0.03125,-0.140625 0.03125,-0.140625 0,-0.01563 0,-0.109375 -0.125,-0.109375 -0.09375,0 -0.109375,0.03125 -0.15625,0.203125 l -0.578125,2.296875 c -1.578125,0.0625 -3.046875,1.375 -3.046875,2.734375 0,0.953125 0.703125,1.734375 1.921875,1.8125 -0.07813,0.296875 -0.15625,0.625 -0.234375,0.9375 -0.125,0.46875 -0.21875,0.84375 -0.21875,0.875 0,0.09375 0.07813,0.109375 0.125,0.109375 0.04687,0 0.0625,-0.01563 0.09375,-0.04687 0.01563,-0.01563 0.07813,-0.25 0.109375,-0.390625 l 0.375,-1.484375 c 1.609375,-0.0625 3.0625,-1.40625 3.0625,-2.734375 0,-0.796875 -0.53125,-1.703125 -1.921875,-1.8125 z m -1.90625,6.578125 c -0.59375,-0.03125 -1.3125,-0.390625 -1.3125,-1.375 0,-1.203125 0.859375,-2.59375 2.34375,-2.734375 z m 1.28125,-4.109375 c 0.765625,0.04687 1.328125,0.5 1.328125,1.375 0,1.1875 -0.859375,2.609375 -2.34375,2.734375 z m 0,0"
             id="path30374" />
        </g>
      </g>
    </g>
    <path
       style="fill:none;stroke:#000000;stroke-width:0.264583px;stroke-linecap:butt;stroke-linejoin:miter;stroke-opacity:1;marker-end:url(#marker27859)"
       d="m 2.1368376,103.73504 c -18.5288206,27.75587 2.7981967,62.72835 26.6773044,79.08087"
       id="path998" />
    <g
       transform="matrix(1.166558,0,0,1.166558,155.41438,87.741253)"
       ns8:version="1.3.0"
       ns8:texconverter="pdflatex"
       ns8:pdfconverter="inkscape"
       ns8:text="$\\mathbb{R}^2 \\times (0;1]$"
       ns8:preamble="/usr/share/inkscape/extensions/textext/default_packages.tex"
       ns8:scale="1.0"
       ns8:alignment="middle center"
       ns8:inkscapeversion="1.2.1"
       ns8:jacobian_sqrt="0.352778"
       id="g365">
      <defs
         id="id-e0261021-21c9-4af5-8dfa-b3a14d998d56">
        <g
           id="id-9d6dd353-cba9-4240-9df4-da7708c2ec58">
          <symbol
             overflow="visible"
             id="id-45c98f08-44ed-41c5-ad85-21304060c1cc">
            <path
               style="stroke:none;stroke-width:0"
               d=""
               id="id-26334f9c-7e46-4346-b0d2-403eed7d42d3" />
          </symbol>
          <symbol
             overflow="visible"
             id="id-e20f6a4e-4759-4c68-8912-89ef13e091de">
            <path
               style="stroke:none;stroke-width:0"
               d="M 2.671875,-3.125 H 3.03125 l 1.5,2.3125 C 4.625,-0.65625 4.859375,-0.265625 4.96875,-0.125 5.046875,0 5.078125,0 5.296875,0 h 1.375 c 0.1875,0 0.34375,0 0.34375,-0.171875 0,-0.09375 -0.0625,-0.15625 -0.15625,-0.171875 C 6.484375,-0.421875 6,-1.09375 5.765625,-1.40625 5.6875,-1.5 5.1875,-2.15625 4.53125,-3.234375 5.40625,-3.40625 6.265625,-3.78125 6.265625,-4.96875 6.265625,-6.34375 4.8125,-6.828125 3.625,-6.828125 H 0.5 c -0.1875,0 -0.34375,0 -0.34375,0.171875 0,0.171875 0.1875,0.171875 0.265625,0.171875 0.578125,0 0.625,0.078125 0.625,0.578125 v 4.984375 c 0,0.5 -0.046875,0.578125 -0.625,0.578125 -0.078125,0 -0.265625,0 -0.265625,0.171875 C 0.15625,0 0.3125,0 0.5,0 H 3.234375 C 3.40625,0 3.5625,0 3.5625,-0.171875 c 0,-0.171875 -0.171875,-0.171875 -0.28125,-0.171875 -0.5625,0 -0.609375,-0.078125 -0.609375,-0.578125 z m 1.921875,-0.5 c 0.28125,-0.359375 0.3125,-0.890625 0.3125,-1.328125 0,-0.484375 -0.0625,-1.015625 -0.375,-1.421875 0.40625,0.09375 1.390625,0.40625 1.390625,1.40625 0,0.65625 -0.296875,1.15625 -1.328125,1.34375 z M 2.671875,-5.9375 c 0,-0.21875 0,-0.546875 0.625,-0.546875 0.84375,0 1.265625,0.359375 1.265625,1.53125 0,1.28125 -0.3125,1.46875 -1.890625,1.46875 z M 1.3125,-0.34375 C 1.390625,-0.53125 1.390625,-0.8125 1.390625,-0.890625 V -5.9375 c 0,-0.09375 0,-0.359375 -0.078125,-0.546875 h 1.140625 c -0.125,0.171875 -0.125,0.359375 -0.125,0.515625 v 5.078125 c 0,0.09375 0,0.359375 0.078125,0.546875 z M 3.4375,-3.125 c 0.078125,-0.015625 0.109375,-0.03125 0.1875,-0.03125 0.15625,0 0.375,-0.015625 0.515625,-0.03125 0.15625,0.234375 1.234375,2.015625 2.0625,2.84375 h -0.96875 z m 0,0"
               id="id-1791b6a2-f691-4f5b-ac8e-6a64238570f9" />
          </symbol>
          <symbol
             overflow="visible"
             id="id-0c3c23ec-dc14-4609-abfc-5ebfb7df3c6e">
            <path
               style="stroke:none;stroke-width:0"
               d=""
               id="id-6f4bf21c-20a1-4ee5-8c07-e0930d371654" />
          </symbol>
          <symbol
             overflow="visible"
             id="id-69f285d9-6544-43d9-9257-c60a0a7618ad">
            <path
               style="stroke:none;stroke-width:0"
               d="M 3.515625,-1.265625 H 3.28125 c -0.015625,0.15625 -0.09375,0.5625 -0.1875,0.625 C 3.046875,-0.59375 2.515625,-0.59375 2.40625,-0.59375 H 1.125 c 0.734375,-0.640625 0.984375,-0.84375 1.390625,-1.171875 0.515625,-0.40625 1,-0.84375 1,-1.5 0,-0.84375 -0.734375,-1.359375 -1.625,-1.359375 -0.859375,0 -1.453125,0.609375 -1.453125,1.25 0,0.34375 0.296875,0.390625 0.375,0.390625 0.15625,0 0.359375,-0.125 0.359375,-0.375 0,-0.125 -0.046875,-0.375 -0.40625,-0.375 C 0.984375,-4.21875 1.453125,-4.375 1.78125,-4.375 c 0.703125,0 1.0625,0.546875 1.0625,1.109375 0,0.609375 -0.4375,1.078125 -0.65625,1.328125 L 0.515625,-0.265625 C 0.4375,-0.203125 0.4375,-0.1875 0.4375,0 h 2.875 z m 0,0"
               id="id-97050dd4-7f0d-4ee9-bfc2-1871129f444f" />
          </symbol>
          <symbol
             overflow="visible"
             id="id-8a7ed629-d6b6-43e5-8abb-058268d2bbd1">
            <path
               style="stroke:none;stroke-width:0"
               d=""
               id="id-18923485-dd63-4a67-b390-d364fc800edc" />
          </symbol>
          <symbol
             overflow="visible"
             id="id-8e6399be-db58-4581-9131-36ecd3c037b7">
            <path
               style="stroke:none;stroke-width:0"
               d="M 3.875,-2.765625 1.890625,-4.75 C 1.765625,-4.875 1.75,-4.890625 1.671875,-4.890625 1.5625,-4.890625 1.46875,-4.8125 1.46875,-4.6875 c 0,0.0625 0.015625,0.078125 0.125,0.1875 l 2,2 -2,2.015625 c -0.109375,0.109375 -0.125,0.125 -0.125,0.1875 0,0.125 0.09375,0.203125 0.203125,0.203125 0.078125,0 0.09375,-0.015625 0.21875,-0.140625 L 3.875,-2.21875 l 2.0625,2.0625 c 0.015625,0.015625 0.078125,0.0625 0.140625,0.0625 0.125,0 0.203125,-0.078125 0.203125,-0.203125 0,-0.015625 0,-0.046875 -0.03125,-0.109375 C 6.234375,-0.421875 4.65625,-1.984375 4.15625,-2.5 l 1.828125,-1.8125 c 0.046875,-0.0625 0.203125,-0.1875 0.25,-0.25 0,-0.015625 0.046875,-0.0625 0.046875,-0.125 0,-0.125 -0.078125,-0.203125 -0.203125,-0.203125 C 6,-4.890625 5.96875,-4.859375 5.859375,-4.75 Z m 0,0"
               id="id-ebf62d53-f6db-4a87-a596-ec18c71d1ea0" />
          </symbol>
          <symbol
             overflow="visible"
             id="id-5b5e0499-1486-490e-aa10-365d4bc3b19f">
            <path
               style="stroke:none;stroke-width:0"
               d=""
               id="id-597b1670-f747-49cc-9932-1fc5eaa916b1" />
          </symbol>
          <symbol
             overflow="visible"
             id="id-819a3efa-0308-455e-9f0c-0b832f736601">
            <path
               style="stroke:none;stroke-width:0"
               d="m 3.296875,2.390625 c 0,-0.03125 0,-0.046875 -0.171875,-0.21875 C 1.890625,0.921875 1.5625,-0.96875 1.5625,-2.5 c 0,-1.734375 0.375,-3.46875 1.609375,-4.703125 0.125,-0.125 0.125,-0.140625 0.125,-0.171875 0,-0.078125 -0.03125,-0.109375 -0.09375,-0.109375 -0.109375,0 -1,0.6875 -1.59375,1.953125 -0.5,1.09375 -0.625,2.203125 -0.625,3.03125 0,0.78125 0.109375,1.984375 0.65625,3.125 C 2.25,1.84375 3.09375,2.5 3.203125,2.5 c 0.0625,0 0.09375,-0.03125 0.09375,-0.109375 z m 0,0"
               id="id-ce44a8dd-cfda-412a-8d5e-48709260a093" />
          </symbol>
          <symbol
             overflow="visible"
             id="id-a6d80e64-d90b-4e3b-9ba2-d1deb74a15a0">
            <path
               style="stroke:none;stroke-width:0"
               d="m 4.578125,-3.1875 c 0,-0.796875 -0.046875,-1.59375 -0.390625,-2.328125 -0.453125,-0.96875 -1.28125,-1.125 -1.6875,-1.125 -0.609375,0 -1.328125,0.265625 -1.75,1.1875 -0.3125,0.6875 -0.359375,1.46875 -0.359375,2.265625 0,0.75 0.03125,1.640625 0.453125,2.40625 0.421875,0.796875 1.15625,1 1.640625,1 0.53125,0 1.296875,-0.203125 1.734375,-1.15625 0.3125,-0.6875 0.359375,-1.46875 0.359375,-2.25 z M 2.484375,0 C 2.09375,0 1.5,-0.25 1.328125,-1.203125 1.21875,-1.796875 1.21875,-2.71875 1.21875,-3.3125 c 0,-0.640625 0,-1.296875 0.078125,-1.828125 0.1875,-1.1875 0.9375,-1.28125 1.1875,-1.28125 0.328125,0 0.984375,0.1875 1.171875,1.171875 0.109375,0.5625 0.109375,1.3125 0.109375,1.9375 0,0.75 0,1.421875 -0.109375,2.0625 C 3.5,-0.296875 2.9375,0 2.484375,0 Z m 0,0"
               id="id-352dad7f-bbf0-4ca7-995c-9184105dd54f" />
          </symbol>
          <symbol
             overflow="visible"
             id="id-4c9763c8-ec6c-4337-9fb8-bc4a7fb27e72">
            <path
               style="stroke:none;stroke-width:0"
               d="m 1.90625,-3.765625 c 0,-0.296875 -0.234375,-0.53125 -0.515625,-0.53125 -0.296875,0 -0.53125,0.234375 -0.53125,0.53125 0,0.28125 0.234375,0.53125 0.53125,0.53125 0.28125,0 0.515625,-0.25 0.515625,-0.53125 z m -0.1875,3.65625 c 0,0.28125 0,1.0625 -0.625,1.796875 -0.078125,0.078125 -0.078125,0.09375 -0.078125,0.125 0,0.078125 0.046875,0.109375 0.09375,0.109375 0.109375,0 0.828125,-0.796875 0.828125,-1.953125 0,-0.28125 -0.015625,-1.03125 -0.546875,-1.03125 -0.359375,0 -0.53125,0.28125 -0.53125,0.53125 C 0.859375,-0.265625 1.03125,0 1.390625,0 1.4375,0 1.453125,0 1.46875,-0.015625 c 0.0625,0 0.171875,-0.03125 0.25,-0.09375 z m 0,0"
               id="id-3b7a12d5-08e7-4612-a972-360b236a78d6" />
          </symbol>
          <symbol
             overflow="visible"
             id="id-009a5405-8ecf-484e-b247-92f550203684">
            <path
               style="stroke:none;stroke-width:0"
               d="m 2.9375,-6.375 c 0,-0.25 0,-0.265625 -0.234375,-0.265625 C 2.078125,-6 1.203125,-6 0.890625,-6 v 0.3125 c 0.203125,0 0.78125,0 1.296875,-0.265625 v 5.171875 c 0,0.359375 -0.03125,0.46875 -0.921875,0.46875 h -0.3125 V 0 c 0.34375,-0.03125 1.203125,-0.03125 1.609375,-0.03125 0.390625,0 1.265625,0 1.609375,0.03125 v -0.3125 h -0.3125 c -0.90625,0 -0.921875,-0.109375 -0.921875,-0.46875 z m 0,0"
               id="id-1280f741-8ce0-45bd-9f3a-98c1c715d326" />
          </symbol>
          <symbol
             overflow="visible"
             id="id-f0ca81ee-9b31-44b0-b031-42a6238414cd">
            <path
               style="stroke:none;stroke-width:0"
               d="M 1.578125,-7.484375 H 0.21875 v 0.40625 H 1.1875 V 2.09375 H 0.21875 V 2.5 h 1.359375 z m 0,0"
               id="id-edc00cd8-0147-4d1e-8aff-faac0be68442" />
          </symbol>
        </g>
      </defs>
      <g
         id="id-e4191e7e-0cf5-47f8-a9c9-e73fd33d17ea"
         transform="translate(-148.868,-126.524)">
        <g
           style="fill:#000000;fill-opacity:1"
           id="id-80592b84-7ab2-44bf-9e89-66fb0c0e519c">
          <g
             transform="translate(148.712,134.765)"
             id="g336">
            <path
               style="stroke:none;stroke-width:0"
               d="M 2.671875,-3.125 H 3.03125 l 1.5,2.3125 C 4.625,-0.65625 4.859375,-0.265625 4.96875,-0.125 5.046875,0 5.078125,0 5.296875,0 h 1.375 c 0.1875,0 0.34375,0 0.34375,-0.171875 0,-0.09375 -0.0625,-0.15625 -0.15625,-0.171875 C 6.484375,-0.421875 6,-1.09375 5.765625,-1.40625 5.6875,-1.5 5.1875,-2.15625 4.53125,-3.234375 5.40625,-3.40625 6.265625,-3.78125 6.265625,-4.96875 6.265625,-6.34375 4.8125,-6.828125 3.625,-6.828125 H 0.5 c -0.1875,0 -0.34375,0 -0.34375,0.171875 0,0.171875 0.1875,0.171875 0.265625,0.171875 0.578125,0 0.625,0.078125 0.625,0.578125 v 4.984375 c 0,0.5 -0.046875,0.578125 -0.625,0.578125 -0.078125,0 -0.265625,0 -0.265625,0.171875 C 0.15625,0 0.3125,0 0.5,0 H 3.234375 C 3.40625,0 3.5625,0 3.5625,-0.171875 c 0,-0.171875 -0.171875,-0.171875 -0.28125,-0.171875 -0.5625,0 -0.609375,-0.078125 -0.609375,-0.578125 z m 1.921875,-0.5 c 0.28125,-0.359375 0.3125,-0.890625 0.3125,-1.328125 0,-0.484375 -0.0625,-1.015625 -0.375,-1.421875 0.40625,0.09375 1.390625,0.40625 1.390625,1.40625 0,0.65625 -0.296875,1.15625 -1.328125,1.34375 z M 2.671875,-5.9375 c 0,-0.21875 0,-0.546875 0.625,-0.546875 0.84375,0 1.265625,0.359375 1.265625,1.53125 0,1.28125 -0.3125,1.46875 -1.890625,1.46875 z M 1.3125,-0.34375 C 1.390625,-0.53125 1.390625,-0.8125 1.390625,-0.890625 V -5.9375 c 0,-0.09375 0,-0.359375 -0.078125,-0.546875 h 1.140625 c -0.125,0.171875 -0.125,0.359375 -0.125,0.515625 v 5.078125 c 0,0.09375 0,0.359375 0.078125,0.546875 z M 3.4375,-3.125 c 0.078125,-0.015625 0.109375,-0.03125 0.1875,-0.03125 0.15625,0 0.375,-0.015625 0.515625,-0.03125 0.15625,0.234375 1.234375,2.015625 2.0625,2.84375 h -0.96875 z m 0,0"
               id="id-5262d5ab-553c-4d34-a3a1-979ea1131b52" />
          </g>
        </g>
        <g
           style="fill:#000000;fill-opacity:1"
           id="id-7aa6d827-f34b-450a-aeae-1c871353b6ee">
          <g
             transform="translate(155.908,131.149)"
             id="g340">
            <path
               style="stroke:none;stroke-width:0"
               d="M 3.515625,-1.265625 H 3.28125 c -0.015625,0.15625 -0.09375,0.5625 -0.1875,0.625 C 3.046875,-0.59375 2.515625,-0.59375 2.40625,-0.59375 H 1.125 c 0.734375,-0.640625 0.984375,-0.84375 1.390625,-1.171875 0.515625,-0.40625 1,-0.84375 1,-1.5 0,-0.84375 -0.734375,-1.359375 -1.625,-1.359375 -0.859375,0 -1.453125,0.609375 -1.453125,1.25 0,0.34375 0.296875,0.390625 0.375,0.390625 0.15625,0 0.359375,-0.125 0.359375,-0.375 0,-0.125 -0.046875,-0.375 -0.40625,-0.375 C 0.984375,-4.21875 1.453125,-4.375 1.78125,-4.375 c 0.703125,0 1.0625,0.546875 1.0625,1.109375 0,0.609375 -0.4375,1.078125 -0.65625,1.328125 L 0.515625,-0.265625 C 0.4375,-0.203125 0.4375,-0.1875 0.4375,0 h 2.875 z m 0,0"
               id="id-548ac1a6-da3d-4132-b84d-d099dfd1aa43" />
          </g>
        </g>
        <g
           style="fill:#000000;fill-opacity:1"
           id="id-3773072a-e316-4c97-9b92-062ec8c54fa4">
          <g
             transform="translate(162.591,134.765)"
             id="g344">
            <path
               style="stroke:none;stroke-width:0"
               d="M 3.875,-2.765625 1.890625,-4.75 C 1.765625,-4.875 1.75,-4.890625 1.671875,-4.890625 1.5625,-4.890625 1.46875,-4.8125 1.46875,-4.6875 c 0,0.0625 0.015625,0.078125 0.125,0.1875 l 2,2 -2,2.015625 c -0.109375,0.109375 -0.125,0.125 -0.125,0.1875 0,0.125 0.09375,0.203125 0.203125,0.203125 0.078125,0 0.09375,-0.015625 0.21875,-0.140625 L 3.875,-2.21875 l 2.0625,2.0625 c 0.015625,0.015625 0.078125,0.0625 0.140625,0.0625 0.125,0 0.203125,-0.078125 0.203125,-0.203125 0,-0.015625 0,-0.046875 -0.03125,-0.109375 C 6.234375,-0.421875 4.65625,-1.984375 4.15625,-2.5 l 1.828125,-1.8125 c 0.046875,-0.0625 0.203125,-0.1875 0.25,-0.25 0,-0.015625 0.046875,-0.0625 0.046875,-0.125 0,-0.125 -0.078125,-0.203125 -0.203125,-0.203125 C 6,-4.890625 5.96875,-4.859375 5.859375,-4.75 Z m 0,0"
               id="id-0af677f1-300c-4815-8701-c0c18c6dc5b7" />
          </g>
        </g>
        <g
           style="fill:#000000;fill-opacity:1"
           id="id-6bd07268-376e-4d0d-894e-9085e9e319b0">
          <g
             transform="translate(172.553,134.765)"
             id="g348">
            <path
               style="stroke:none;stroke-width:0"
               d="m 3.296875,2.390625 c 0,-0.03125 0,-0.046875 -0.171875,-0.21875 C 1.890625,0.921875 1.5625,-0.96875 1.5625,-2.5 c 0,-1.734375 0.375,-3.46875 1.609375,-4.703125 0.125,-0.125 0.125,-0.140625 0.125,-0.171875 0,-0.078125 -0.03125,-0.109375 -0.09375,-0.109375 -0.109375,0 -1,0.6875 -1.59375,1.953125 -0.5,1.09375 -0.625,2.203125 -0.625,3.03125 0,0.78125 0.109375,1.984375 0.65625,3.125 C 2.25,1.84375 3.09375,2.5 3.203125,2.5 c 0.0625,0 0.09375,-0.03125 0.09375,-0.109375 z m 0,0"
               id="id-1ef988d7-6dbc-4051-b92c-de62cb385b7a" />
          </g>
          <g
             transform="translate(176.427,134.765)"
             id="g351">
            <path
               style="stroke:none;stroke-width:0"
               d="m 4.578125,-3.1875 c 0,-0.796875 -0.046875,-1.59375 -0.390625,-2.328125 -0.453125,-0.96875 -1.28125,-1.125 -1.6875,-1.125 -0.609375,0 -1.328125,0.265625 -1.75,1.1875 -0.3125,0.6875 -0.359375,1.46875 -0.359375,2.265625 0,0.75 0.03125,1.640625 0.453125,2.40625 0.421875,0.796875 1.15625,1 1.640625,1 0.53125,0 1.296875,-0.203125 1.734375,-1.15625 0.3125,-0.6875 0.359375,-1.46875 0.359375,-2.25 z M 2.484375,0 C 2.09375,0 1.5,-0.25 1.328125,-1.203125 1.21875,-1.796875 1.21875,-2.71875 1.21875,-3.3125 c 0,-0.640625 0,-1.296875 0.078125,-1.828125 0.1875,-1.1875 0.9375,-1.28125 1.1875,-1.28125 0.328125,0 0.984375,0.1875 1.171875,1.171875 0.109375,0.5625 0.109375,1.3125 0.109375,1.9375 0,0.75 0,1.421875 -0.109375,2.0625 C 3.5,-0.296875 2.9375,0 2.484375,0 Z m 0,0"
               id="id-3c9db6dc-3fa4-4c0d-a494-60c617ae6c7c" />
          </g>
          <g
             transform="translate(181.409,134.765)"
             id="g354">
            <path
               style="stroke:none;stroke-width:0"
               d="m 1.90625,-3.765625 c 0,-0.296875 -0.234375,-0.53125 -0.515625,-0.53125 -0.296875,0 -0.53125,0.234375 -0.53125,0.53125 0,0.28125 0.234375,0.53125 0.53125,0.53125 0.28125,0 0.515625,-0.25 0.515625,-0.53125 z m -0.1875,3.65625 c 0,0.28125 0,1.0625 -0.625,1.796875 -0.078125,0.078125 -0.078125,0.09375 -0.078125,0.125 0,0.078125 0.046875,0.109375 0.09375,0.109375 0.109375,0 0.828125,-0.796875 0.828125,-1.953125 0,-0.28125 -0.015625,-1.03125 -0.546875,-1.03125 -0.359375,0 -0.53125,0.28125 -0.53125,0.53125 C 0.859375,-0.265625 1.03125,0 1.390625,0 1.4375,0 1.453125,0 1.46875,-0.015625 c 0.0625,0 0.171875,-0.03125 0.25,-0.09375 z m 0,0"
               id="id-9f582267-16e0-486b-8e2d-66a7c9e9c6c4" />
          </g>
        </g>
        <g
           style="fill:#000000;fill-opacity:1"
           id="id-5ecef374-2386-435e-999e-4c731ff7e944">
          <g
             transform="translate(185.84,134.765)"
             id="g358">
            <path
               style="stroke:none;stroke-width:0"
               d="m 2.9375,-6.375 c 0,-0.25 0,-0.265625 -0.234375,-0.265625 C 2.078125,-6 1.203125,-6 0.890625,-6 v 0.3125 c 0.203125,0 0.78125,0 1.296875,-0.265625 v 5.171875 c 0,0.359375 -0.03125,0.46875 -0.921875,0.46875 h -0.3125 V 0 c 0.34375,-0.03125 1.203125,-0.03125 1.609375,-0.03125 0.390625,0 1.265625,0 1.609375,0.03125 v -0.3125 h -0.3125 c -0.90625,0 -0.921875,-0.109375 -0.921875,-0.46875 z m 0,0"
               id="id-ebec3670-4aa9-4e70-b168-a7e12a8e91d7" />
          </g>
          <g
             transform="translate(190.821,134.765)"
             id="g361">
            <path
               style="stroke:none;stroke-width:0"
               d="M 1.578125,-7.484375 H 0.21875 v 0.40625 H 1.1875 V 2.09375 H 0.21875 V 2.5 h 1.359375 z m 0,0"
               id="id-49aceb68-4d05-4fe4-8e41-563ff76cae0f" />
          </g>
        </g>
      </g>
    </g>
    <g
       transform="matrix(0.90131371,0,0,0.90131371,88.963376,116.06125)"
       id="g932"
       style="fill:#000000;fill-opacity:1">
      <path
         style="stroke:none;stroke-width:0"
         d="m 4.75,-2.359375 c 0,-1.5625 -0.921875,-2.046875 -1.65625,-2.046875 -1.375,0 -2.6875,1.421875 -2.6875,2.828125 0,0.9375 0.59375,1.6875 1.625,1.6875 0.625,0 1.34375,-0.234375 2.09375,-0.84375 0.125,0.53125 0.453125,0.84375 0.90625,0.84375 0.53125,0 0.84375,-0.546875 0.84375,-0.703125 0,-0.078125 -0.0625,-0.109375 -0.125,-0.109375 -0.0625,0 -0.09375,0.03125 -0.125,0.109375 -0.1875,0.484375 -0.546875,0.484375 -0.5625,0.484375 -0.3125,0 -0.3125,-0.78125 -0.3125,-1.015625 0,-0.203125 0,-0.234375 0.109375,-0.34375 C 5.796875,-2.65625 6,-3.8125 6,-3.8125 6,-3.84375 5.984375,-3.921875 5.875,-3.921875 c -0.09375,0 -0.09375,0.03125 -0.140625,0.21875 -0.1875,0.625 -0.515625,1.375 -0.984375,1.96875 z m -0.65625,1.375 c -0.890625,0.765625 -1.65625,0.875 -2.046875,0.875 -0.59375,0 -0.90625,-0.453125 -0.90625,-1.09375 0,-0.484375 0.265625,-1.5625 0.578125,-2.0625 C 2.1875,-4 2.734375,-4.1875 3.078125,-4.1875 c 0.984375,0 0.984375,1.3125 0.984375,2.078125 0,0.375 0,0.953125 0.03125,1.125 z m 0,0"
         id="id-88c1d940-2423-4e23-928a-e274a7ea2d0c" />
    </g>
    <g
       transform="matrix(0.78672888,0,0,0.78672888,87.598575,169.37227)"
       id="g936"
       style="fill:#000000;fill-opacity:1">
      <path
         style="stroke:none;stroke-width:0"
         d="m 5.734375,-5.671875 c 0,-0.75 -0.546875,-1.359375 -1.359375,-1.359375 -0.578125,0 -0.859375,0.15625 -1.203125,0.40625 C 2.625,-6.21875 2.078125,-5.25 1.890625,-4.5 L 0.296875,1.828125 C 0.296875,1.875 0.34375,1.9375 0.421875,1.9375 0.5,1.9375 0.53125,1.90625 0.53125,1.890625 L 1.234375,-0.875 c 0.1875,0.609375 0.625,0.96875 1.359375,0.96875 C 3.3125,0.09375 4.0625,-0.25 4.515625,-0.6875 5,-1.140625 5.3125,-1.78125 5.3125,-2.515625 c 0,-0.71875 -0.375,-1.25 -0.734375,-1.484375 0.578125,-0.34375 1.15625,-0.953125 1.15625,-1.671875 z M 3.9375,-4.015625 c -0.125,0.046875 -0.234375,0.0625 -0.484375,0.0625 -0.140625,0 -0.328125,0.015625 -0.4375,-0.03125 0.03125,-0.109375 0.390625,-0.078125 0.5,-0.078125 0.203125,0 0.296875,0 0.421875,0.046875 z M 5.171875,-5.90625 c 0,0.703125 -0.375,1.421875 -0.890625,1.734375 C 4,-4.28125 3.8125,-4.296875 3.515625,-4.296875 c -0.21875,0 -0.78125,-0.015625 -0.78125,0.3125 0,0.28125 0.515625,0.25 0.6875,0.25 0.375,0 0.53125,0 0.828125,-0.125 0.375,0.359375 0.421875,0.671875 0.4375,1.125 0.015625,0.578125 -0.21875,1.328125 -0.5,1.71875 C 3.796875,-0.484375 3.125,-0.125 2.5625,-0.125 c -0.765625,0 -1.140625,-0.578125 -1.140625,-1.28125 0,-0.09375 0,-0.25 0.046875,-0.4375 L 2.109375,-4.359375 C 2.328125,-5.21875 3.046875,-6.8125 4.25,-6.8125 c 0.578125,0 0.921875,0.3125 0.921875,0.90625 z m 0,0"
         id="id-fc1d0ade-6c28-4ef9-b9fe-c23e38e27cc5" />
    </g>
    <g
       transform="matrix(1.010887,0,0,1.010887,-14.692937,138.1162)"
       id="g940"
       style="fill:#000000;fill-opacity:1">
      <path
         style="stroke:none;stroke-width:0"
         d="m 3.234375,-5.765625 c 0.171875,0.171875 0.40625,0.171875 0.609375,0.171875 0.25,0 0.875,0 0.875,-0.3125 0,-0.25 -0.390625,-0.265625 -0.796875,-0.265625 -0.109375,0 -0.375,0 -0.625,0.09375 -0.0625,-0.109375 -0.078125,-0.15625 -0.078125,-0.375 0,-0.140625 0.046875,-0.34375 0.046875,-0.359375 0,-0.078125 -0.046875,-0.140625 -0.109375,-0.140625 -0.1875,0 -0.1875,0.46875 -0.1875,0.5 0,0.15625 0.03125,0.34375 0.109375,0.484375 -1.046875,0.53125 -2.625,2.375 -2.625,4.296875 0,1.40625 0.90625,1.71875 1.625,1.953125 C 2.375,0.390625 2.40625,0.390625 2.6875,0.484375 c 0.21875,0.078125 0.625,0.21875 0.625,0.6875 0,0.265625 -0.1875,0.65625 -0.5625,0.65625 -0.25,0 -0.53125,-0.125 -0.734375,-0.296875 C 1.9375,1.46875 1.9375,1.453125 1.890625,1.453125 1.84375,1.453125 1.796875,1.5 1.796875,1.5625 c 0,0.109375 0.421875,0.484375 0.953125,0.484375 0.625,0 1.09375,-0.640625 1.09375,-1.203125 C 3.84375,0.453125 3.65625,0.25 3.5625,0.171875 3.40625,-0.015625 3.203125,-0.078125 2.625,-0.28125 1.828125,-0.546875 1.671875,-0.59375 1.421875,-0.8125 1,-1.1875 1,-1.75 1,-1.9375 1,-3.484375 2.21875,-5.234375 3.234375,-5.765625 Z M 3.453125,-5.875 c 0.15625,-0.078125 0.328125,-0.078125 0.46875,-0.078125 0.328125,0 0.359375,0.015625 0.546875,0.0625 -0.078125,0.03125 -0.1875,0.078125 -0.625,0.078125 -0.203125,0 -0.28125,0 -0.390625,-0.0625 z m 0,0"
         id="id-8a327d75-f169-48db-9a8e-53f1476a98c4" />
    </g>
  </g>
</svg>
